<svg width="80" height="80" viewBox="0 0 80 80" fill="#00FF2F" xmlns="http://www.w3.org/2000/svg">
    <g clip-path="url(#clip0_151_190)">
        <path
            d="M61.3422 10.7719C60.9485 10.7719 60.5782 10.9579 60.3422 11.2719C57.4626 15.1157 52.6297 22.1344 52.6297 25.9454C52.6297 30.7469 56.5376 34.6532 61.3422 34.6532C66.1438 34.6532 70.0501 30.7469 70.0501 25.9454C70.0501 22.3375 65.8594 15.975 62.3422 11.2719C62.2257 11.1168 62.0747 10.9908 61.9012 10.904C61.7276 10.8173 61.5363 10.772 61.3422 10.7719ZM67.5516 25.9469C67.5516 29.3704 64.7657 32.1563 61.3422 32.1563C57.9157 32.1563 55.1282 29.3704 55.1282 25.9469C55.1282 23.9266 57.4813 19.4719 61.3422 14.1297C65.2516 19.5422 67.5516 23.9016 67.5516 25.9469ZM79.8313 57.125L78.3501 54.5532C77.6922 53.4172 76.5172 52.7391 75.2047 52.7391C73.8938 52.7391 72.7172 53.4172 72.0579 54.5563L71.2657 55.9313C70.9704 56.4422 70.4797 56.4969 70.2829 56.4969C70.086 56.4969 69.5954 56.4422 69.3016 55.9344L68.5079 54.5547C67.8501 53.4188 66.6735 52.7407 65.3626 52.7407C64.0516 52.7407 62.8751 53.4188 62.2157 54.5579L61.4235 55.9329C61.1282 56.4438 60.6376 56.4985 60.4407 56.4985C60.336 56.4985 60.1469 56.4829 59.9501 56.3907C59.1157 49.0579 56.2891 43.1125 51.5422 38.7125C47.0938 34.5891 41.1438 31.9891 33.8438 30.975V27.1438C33.8438 26.4532 33.2844 25.8954 32.5954 25.8954H27.0985C26.4079 25.8954 25.8501 26.4547 25.8501 27.1438V27.95H12.8079V23.5938H14.8313C15.5219 23.5938 16.0797 23.0344 16.0797 22.3454V15.2672C16.0797 14.5766 15.5204 14.0188 14.8313 14.0188H1.25161C0.560986 14.0188 0.00317383 14.5782 0.00317383 15.2672V72.2172C0.00317383 72.9079 0.562549 73.4657 1.25161 73.4657H78.7485C79.4391 73.4657 79.9969 72.9063 79.9969 72.2172V57.7469C79.9969 57.5282 79.9391 57.3141 79.8313 57.125ZM56.8329 52.9797C56.4235 52.8235 55.9813 52.7375 55.5219 52.7375C54.3766 52.7375 53.3376 53.2532 52.6594 54.136C52.2126 51.3954 51.4891 49.0297 50.4672 46.9688C50.161 46.35 49.411 46.0985 48.7938 46.4047C48.1751 46.711 47.9235 47.461 48.2297 48.0782C49.3688 50.3766 50.1001 53.136 50.4547 56.4844C50.2204 56.4547 49.8594 56.3375 49.6235 55.9282L48.8266 54.55C48.1688 53.4141 46.9922 52.736 45.6813 52.736C45.4516 52.736 45.2266 52.7579 45.0063 52.7985C43.8344 45.5547 40.0876 41.1954 33.8469 39.8141V33.4954C46.2766 35.336 54.2891 42.1625 56.8329 52.9797ZM28.3501 28.3907H31.3485V42.9844H28.3501V28.3907ZM27.1001 45.4829H32.5969C33.2876 45.4829 33.8454 44.9235 33.8454 44.2344V42.386C39.0094 43.7469 41.9126 47.6625 42.6938 54.3079C42.6391 54.3875 42.5876 54.4688 42.5391 54.5516L41.7407 55.9313C41.4485 56.4391 40.9579 56.4938 40.761 56.4938C40.5641 56.4938 40.0751 56.4391 39.7797 55.9282L38.9829 54.55C38.3251 53.4141 37.1501 52.736 35.8376 52.736C34.5219 52.736 33.3469 53.4157 32.6969 54.5516L31.8985 55.9313C31.6063 56.4391 31.1157 56.4938 30.9188 56.4938C30.7219 56.4938 30.2329 56.4391 29.9376 55.9282L29.1407 54.55C28.4829 53.4141 27.3094 52.736 26 52.736C24.6891 52.736 23.5126 53.4141 22.8547 54.5516L22.0563 55.9313C21.7641 56.4391 21.2735 56.4938 21.0766 56.4938C20.8797 56.4938 20.3907 56.4391 20.0954 55.9282L19.3001 54.5547C18.6469 53.4157 17.4719 52.736 16.1563 52.736C14.8454 52.736 13.6688 53.4141 13.011 54.5516L12.8032 54.911V43.4266H25.8469V44.2329C25.8516 44.9235 26.411 45.4829 27.1001 45.4829ZM25.8516 30.4469V40.9313H12.8079V30.4469H25.8516ZM2.50161 18.8688V16.5172H13.5829V21.0969H2.50161V18.8688ZM2.50161 23.5938H10.3094V70.9688H2.50161V23.5938ZM77.4985 70.9688H12.8079V66.2954C13.4594 65.9844 14.0079 65.4844 14.3813 64.8391L15.1766 63.4594C15.3922 63.0875 15.7313 62.8907 16.1594 62.8907C16.586 62.8907 16.9235 63.086 17.1376 63.4563L17.9344 64.8391C18.5891 65.9719 19.7641 66.65 21.0782 66.65C22.3922 66.65 23.5672 65.9735 24.2219 64.8391L25.0188 63.4594C25.2344 63.0875 25.5735 62.8907 26.0016 62.8907C26.4266 62.8907 26.7657 63.0875 26.9797 63.4563L27.7766 64.8391C28.4313 65.9735 29.6063 66.65 30.9204 66.65C32.2344 66.65 33.4094 65.9735 34.0641 64.8391L34.8626 63.4547C35.0735 63.086 35.411 62.8907 35.8391 62.8907C36.2672 62.8907 36.6063 63.0875 36.8219 63.4563L37.6188 64.8391C38.2735 65.9719 39.4485 66.65 40.7626 66.65C42.0766 66.65 43.2516 65.9735 43.9063 64.8391L44.7047 63.4547C44.9157 63.086 45.2532 62.8907 45.6813 62.8907C46.1094 62.8907 46.4485 63.0875 46.6641 63.4563L47.461 64.8391C48.1141 65.9719 49.2876 66.6485 50.5985 66.65H50.6032C51.9157 66.65 53.0907 65.9735 53.7485 64.8391L54.5469 63.4547C54.7579 63.086 55.0954 62.8907 55.5235 62.8907C55.9516 62.8907 56.2907 63.0875 56.5047 63.4547L57.3001 64.8422C57.9563 65.975 59.1329 66.65 60.4438 66.65C61.7563 66.65 62.9313 65.9735 63.5907 64.836L64.3813 63.4579C64.5969 63.086 64.936 62.8891 65.3641 62.8891C65.7922 62.8891 66.1313 63.086 66.3454 63.4532L67.1407 64.8407C67.7969 65.9735 68.9719 66.6485 70.2844 66.6485C71.5969 66.6485 72.7719 65.9719 73.4313 64.8344L74.2219 63.4563C74.4376 63.0844 74.7766 62.8875 75.2047 62.8875C75.6329 62.8875 75.9719 63.0844 76.186 63.4532L77.4985 65.7329V70.9688ZM77.4985 61.2047C76.8641 60.6844 76.0641 60.3922 75.2047 60.3922C73.8938 60.3922 72.7172 61.0704 72.0579 62.211L71.2672 63.5875C70.9719 64.0954 70.4813 64.1516 70.2844 64.1516C70.0876 64.1516 69.5954 64.0969 69.3032 63.5938L68.5079 62.2079C67.8501 61.0719 66.6735 60.3938 65.3626 60.3938C64.0516 60.3938 62.8751 61.0719 62.2157 62.2125L61.4251 63.5891C61.1297 64.0969 60.6391 64.1532 60.4422 64.1532C60.2454 64.1532 59.7532 64.0985 59.461 63.5954L58.6657 62.2094C58.0079 61.0735 56.8329 60.3954 55.5204 60.3954C54.2047 60.3954 53.0297 61.075 52.3782 62.211L51.5829 63.5907C51.2876 64.0985 50.7985 64.1547 50.6001 64.1547H50.5985C50.4016 64.1547 49.9141 64.1 49.6219 63.5938L48.8235 62.2094C48.1657 61.0735 46.9891 60.3954 45.6782 60.3954C44.3626 60.3954 43.1876 61.075 42.5376 62.211L41.7407 63.5922C41.4485 64.0985 40.9579 64.1532 40.761 64.1532C40.5641 64.1532 40.0735 64.0985 39.7813 63.5922L38.9829 62.2079C38.3251 61.0719 37.1501 60.3938 35.8376 60.3938C34.5219 60.3938 33.3469 61.0735 32.6954 62.2094L31.8985 63.5907C31.6063 64.0969 31.1157 64.1516 30.9188 64.1516C30.7219 64.1516 30.2313 64.0969 29.9391 63.5907L29.1407 62.2063C28.4829 61.0704 27.3094 60.3922 26 60.3922C24.6891 60.3922 23.5126 61.0704 22.8547 62.2079L22.0579 63.5891C21.7657 64.0954 21.275 64.15 21.0782 64.15C20.8813 64.15 20.3907 64.0954 20.0985 63.5891L19.3032 62.2094C18.6501 61.0704 17.4751 60.3907 16.1594 60.3907C14.8485 60.3907 13.6719 61.0688 13.0141 62.2063L12.8079 62.5641V58.6407C13.461 58.3297 14.0094 57.8282 14.3813 57.1813L15.1782 55.8047C15.3938 55.4329 15.7329 55.236 16.161 55.236C16.5876 55.236 16.9251 55.4313 17.1391 55.8032L17.9344 57.1782C18.5891 58.3141 19.7641 58.9938 21.0782 58.9938C22.3922 58.9938 23.5688 58.3157 24.2204 57.1813L25.0172 55.8032C25.2329 55.4313 25.5719 55.2344 26 55.2344C26.425 55.2344 26.7641 55.4313 26.9782 55.8016L27.7735 57.1766C28.4282 58.3125 29.6032 58.9922 30.9172 58.9922C32.2313 58.9922 33.4079 58.3141 34.0594 57.1797L34.8594 55.7985C35.0704 55.4297 35.4079 55.2344 35.836 55.2344C36.2641 55.2344 36.6032 55.4313 36.8188 55.8016L37.6141 57.1766C38.2688 58.3125 39.4438 58.9922 40.7579 58.9922C42.0719 58.9922 43.2485 58.3141 43.9001 57.1797L44.7001 55.7969C44.911 55.4282 45.2485 55.2329 45.6766 55.2329C46.1047 55.2329 46.4438 55.4297 46.6594 55.8L47.4547 57.175C48.1079 58.311 49.2813 58.9891 50.5938 58.9907H50.5985C51.911 58.9907 53.086 58.3125 53.7422 57.1782L54.5422 55.7969C54.7532 55.4282 55.0907 55.2329 55.5188 55.2329C55.9469 55.2329 56.286 55.4297 56.5001 55.7985L57.2938 57.1782C57.9501 58.3125 59.1266 58.9907 60.4391 58.9907C61.7516 58.9907 62.9282 58.3125 63.586 57.175L64.3766 55.8C64.5922 55.4282 64.9313 55.2313 65.3594 55.2313C65.7876 55.2313 66.1266 55.4282 66.3407 55.7969L67.1344 57.1766C67.7907 58.3125 68.9672 58.9891 70.2797 58.9891C71.5922 58.9891 72.7688 58.311 73.4266 57.1735L74.2172 55.7985C74.4329 55.4266 74.7719 55.2297 75.2001 55.2297C75.6282 55.2297 75.9672 55.4266 76.1813 55.7954L77.4938 58.075V61.2047H77.4985ZM60.5391 26.0547L63.4079 23.1891C63.524 23.0731 63.6618 22.9811 63.8135 22.9184C63.9651 22.8557 64.1277 22.8235 64.2918 22.8237C64.4559 22.8238 64.6184 22.8563 64.7699 22.9193C64.9215 22.9822 65.0592 23.0745 65.1751 23.1907C65.6626 23.6782 65.6626 24.4704 65.1735 24.9563L61.4219 28.7032C61.1782 28.9469 60.8579 29.0688 60.5391 29.0688C60.2204 29.0688 59.9001 28.9469 59.6563 28.7032L57.5032 26.5547C57.0157 26.0672 57.0141 25.2766 57.5016 24.7891C57.9891 24.3016 58.7797 24.3 59.2672 24.7875L60.5391 26.0547ZM37.4266 38.036C37.6657 37.3891 38.3829 37.0563 39.0297 37.2954C41.9688 38.3782 44.3454 39.7438 46.2969 41.475C46.8126 41.9329 46.861 42.7219 46.4032 43.2375C46.2861 43.3698 46.1422 43.4756 45.9811 43.5481C45.8201 43.6205 45.6454 43.6579 45.4688 43.6579C45.1735 43.6579 44.8782 43.5547 44.6407 43.3438C42.9266 41.8235 40.8094 40.6125 38.1688 39.6391C38.0146 39.5829 37.873 39.4968 37.7522 39.3857C37.6313 39.2746 37.5336 39.1407 37.4646 38.9917C37.3957 38.8428 37.3568 38.6817 37.3503 38.5177C37.3438 38.3536 37.3697 38.1899 37.4266 38.036ZM46.4016 16.4875C48.9282 10.4407 54.7922 6.53442 61.3422 6.53442C68.9469 6.53442 75.4047 11.7704 77.0907 18.9954L77.7219 18.086C78.1157 17.5188 78.8938 17.3797 79.461 17.7735C79.7329 17.9628 79.9185 18.2523 79.9771 18.5784C80.0357 18.9044 79.9625 19.2404 79.7735 19.5125L77.2938 23.0829C77.1788 23.2483 77.0256 23.3835 76.8471 23.4771C76.6687 23.5707 76.4703 23.6198 76.2688 23.6204C76.0136 23.6205 75.7644 23.5426 75.5547 23.3969L71.9844 20.9125C71.8497 20.8188 71.7349 20.6995 71.6463 20.5614C71.5578 20.4232 71.4974 20.269 71.4685 20.1075C71.4396 19.946 71.4428 19.7803 71.478 19.6201C71.5132 19.4598 71.5796 19.3081 71.6735 19.1735C71.7672 19.0388 71.8865 18.9239 72.0247 18.8354C72.1628 18.7468 72.3171 18.6864 72.4786 18.6575C72.6401 18.6287 72.8057 18.6319 72.966 18.6671C73.1262 18.7023 73.278 18.7687 73.4126 18.8625L74.7001 19.7579C73.3422 13.5532 67.8391 9.03599 61.3438 9.03599C55.8047 9.03599 50.8454 12.3407 48.7079 17.4547C48.4422 18.0907 47.7094 18.3922 47.0735 18.125C46.436 17.8547 46.136 17.1235 46.4016 16.4875ZM42.9001 25.5704L45.3797 22C45.5688 21.7282 45.8579 21.5422 46.1844 21.4829C46.511 21.4235 46.8469 21.4969 47.1188 21.686L50.6938 24.1704C51.2594 24.5641 51.4001 25.3422 51.0063 25.9094C50.6126 26.4766 49.8344 26.6157 49.2672 26.2219L47.8938 25.2672C49.0922 31.6922 54.6641 36.3922 61.3407 36.3922C66.8797 36.3922 71.8376 33.0891 73.9719 27.9782C74.0997 27.6724 74.3436 27.4299 74.65 27.3039C74.9565 27.1779 75.3005 27.1788 75.6063 27.3063C75.9121 27.434 76.1546 27.6779 76.2806 27.9844C76.4065 28.2909 76.4057 28.6348 76.2782 28.9407C73.7547 34.9844 67.8922 38.8907 61.3422 38.8907C57.2829 38.8907 53.4016 37.3813 50.411 34.6422C47.9266 32.3657 46.2376 29.4047 45.5329 26.1594L44.9532 26.9954C44.8381 27.161 44.6846 27.2963 44.5058 27.3896C44.327 27.4829 44.1283 27.5316 43.9266 27.5313C43.6813 27.5313 43.4329 27.4594 43.2157 27.3079C42.6469 26.9157 42.5079 26.1375 42.9001 25.5704Z"
        />
    </g>
    <defs>
        <clipPath id="clip0_151_190">
            <rect width="80" height="80" />
        </clipPath>
    </defs>
</svg>