<svg width="661" height="704" viewBox="0 0 661 704" fill="none" xmlns="http://www.w3.org/2000/svg">
<rect width="661" height="704" rx="24" fill="#1D1D1F"/>
<path d="M41.526 53V43.2H42.912V50.76L48.708 43.2H49.996V53H48.624V45.454L42.814 53H41.526ZM60.1214 45.58H61.3814V53H60.1634V47.582L57.3914 52.16H56.8034L54.0594 47.568V53H52.8274V45.58H54.2134L57.1254 50.592L60.1214 45.58ZM66.6993 45.58H69.9473V53H68.7433V50.648H66.5873H66.4333L64.8093 53H63.3673L65.1733 50.466C64.0673 50.13 63.4373 49.36 63.4373 48.184C63.4373 46.462 64.7113 45.58 66.6993 45.58ZM64.8093 48.226C64.8093 49.22 65.4393 49.682 66.6853 49.682H68.7433V46.756H66.7413C65.5093 46.756 64.8093 47.19 64.8093 48.226Z" fill="white" fill-opacity="0.8"/>
<rect x="40" y="60" width="581" height="44" rx="8" fill="black"/>
<rect x="40.5" y="60.5" width="580" height="43" rx="7.5" stroke="black" stroke-opacity="0.2"/>
<path d="M65.962 88V75.4H67.744V85.12L75.196 75.4H76.852V88H75.088V78.298L67.618 88H65.962ZM89.8704 78.46H91.4904V88H89.9244V81.034L86.3604 86.92H85.6044L82.0764 81.016V88H80.4924V78.46H82.2744L86.0184 84.904L89.8704 78.46ZM98.3277 78.46H102.504V88H100.956V84.976H98.1837H97.9857L95.8977 88H94.0437L96.3657 84.742C94.9437 84.31 94.1337 83.32 94.1337 81.808C94.1337 79.594 95.7717 78.46 98.3277 78.46ZM95.8977 81.862C95.8977 83.14 96.7077 83.734 98.3097 83.734H100.956V79.972H98.3817C96.7977 79.972 95.8977 80.53 95.8977 81.862Z" fill="#5E5E5E"/>
<path d="M48.12 147L44.942 142.688H42.898V147H41.526V137.2H42.898V141.456H44.97L48.05 137.2H49.548L46.048 141.946L49.716 147H48.12ZM54.0093 147.084C51.7833 147.084 50.1453 145.502 50.1453 143.29C50.1453 141.078 51.7833 139.51 54.0093 139.51C56.2353 139.51 57.8593 141.078 57.8593 143.29C57.8593 145.502 56.2353 147.084 54.0093 147.084ZM54.0093 145.908C55.4373 145.908 56.5013 144.872 56.5013 143.29C56.5013 141.708 55.4373 140.686 54.0093 140.686C52.5813 140.686 51.5033 141.708 51.5033 143.29C51.5033 144.872 52.5813 145.908 54.0093 145.908ZM67.094 139.58H68.354V147H67.136V141.582L64.364 146.16H63.776L61.032 141.568V147H59.8V139.58H61.186L64.098 144.592L67.094 139.58ZM70.97 139.58H77.844V147H76.5V140.756H72.314V147H70.97V139.58ZM83.0906 139.51C85.1206 139.51 86.2686 140.49 86.2686 142.52V147H84.9946V146.02C84.5466 146.692 83.7206 147.084 82.5586 147.084C80.8786 147.084 79.8146 146.188 79.8146 144.9C79.8146 143.71 80.5846 142.73 82.7966 142.73H84.9246V142.464C84.9246 141.33 84.2666 140.672 82.9366 140.672C82.0546 140.672 81.1586 140.98 80.5846 141.47L80.0246 140.462C80.7946 139.846 81.9006 139.51 83.0906 139.51ZM82.7826 146.048C83.7906 146.048 84.5886 145.586 84.9246 144.732V143.696H82.8526C81.5226 143.696 81.1446 144.214 81.1446 144.844C81.1446 145.586 81.7606 146.048 82.7826 146.048ZM88.6887 147V139.58H90.0327V142.73H94.2607V139.58H95.6047V147H94.2607V143.892H90.0327V147H88.6887ZM98.218 147V139.58H99.562V144.984L104.112 139.58H105.33V147H103.986V141.596L99.45 147H98.218ZM110.641 139.58H113.889V147H112.685V144.648H110.529H110.375L108.751 147H107.309L109.115 144.466C108.009 144.13 107.379 143.36 107.379 142.184C107.379 140.462 108.653 139.58 110.641 139.58ZM108.751 142.226C108.751 143.22 109.381 143.682 110.627 143.682H112.685V140.756H110.683C109.451 140.756 108.751 141.19 108.751 142.226Z" fill="white" fill-opacity="0.8"/>
<rect x="40" y="154" width="581" height="44" rx="8" fill="black"/>
<rect x="40.5" y="154.5" width="580" height="43" rx="7.5" stroke="black" stroke-opacity="0.2"/>
<path d="M74.44 182L70.354 176.456H67.726V182H65.962V169.4H67.726V174.872H70.39L74.35 169.4H76.276L71.776 175.502L76.492 182H74.44ZM82.012 182.108C79.15 182.108 77.044 180.074 77.044 177.23C77.044 174.386 79.15 172.37 82.012 172.37C84.874 172.37 86.962 174.386 86.962 177.23C86.962 180.074 84.874 182.108 82.012 182.108ZM82.012 180.596C83.848 180.596 85.216 179.264 85.216 177.23C85.216 175.196 83.848 173.882 82.012 173.882C80.176 173.882 78.79 175.196 78.79 177.23C78.79 179.264 80.176 180.596 82.012 180.596ZM98.8352 172.46H100.455V182H98.8892V175.034L95.3252 180.92H94.5692L91.0412 175.016V182H89.4572V172.46H91.2392L94.9832 178.904L98.8352 172.46ZM103.819 172.46H112.657V182H110.929V173.972H105.547V182H103.819V172.46ZM119.402 172.37C122.012 172.37 123.488 173.63 123.488 176.24V182H121.85V180.74C121.274 181.604 120.212 182.108 118.718 182.108C116.558 182.108 115.19 180.956 115.19 179.3C115.19 177.77 116.18 176.51 119.024 176.51H121.76V176.168C121.76 174.71 120.914 173.864 119.204 173.864C118.07 173.864 116.918 174.26 116.18 174.89L115.46 173.594C116.45 172.802 117.872 172.37 119.402 172.37ZM119.006 180.776C120.302 180.776 121.328 180.182 121.76 179.084V177.752H119.096C117.386 177.752 116.9 178.418 116.9 179.228C116.9 180.182 117.692 180.776 119.006 180.776ZM126.6 182V172.46H128.328V176.51H133.764V172.46H135.492V182H133.764V178.004H128.328V182H126.6ZM138.852 182V172.46H140.58V179.408L146.43 172.46H147.996V182H146.268V175.052L140.436 182H138.852ZM154.824 172.46H159V182H157.452V178.976H154.68H154.482L152.394 182H150.54L152.862 178.742C151.44 178.31 150.63 177.32 150.63 175.808C150.63 173.594 152.268 172.46 154.824 172.46ZM152.394 175.862C152.394 177.14 153.204 177.734 154.806 177.734H157.452V173.972H154.878C153.294 173.972 152.394 174.53 152.394 175.862Z" fill="#5E5E5E"/>
<path d="M48.26 231.2V232.418H44.9V241H43.528V232.418H40.182V231.2H48.26ZM55.6779 237.332C55.6779 237.444 55.6639 237.612 55.6499 237.738H49.6299C49.7979 239.04 50.8479 239.908 52.3179 239.908C53.1859 239.908 53.9139 239.614 54.4599 239.012L55.2019 239.88C54.5299 240.664 53.5079 241.084 52.2759 241.084C49.8819 241.084 48.2859 239.502 48.2859 237.29C48.2859 235.092 49.8679 233.51 52.0099 233.51C54.1519 233.51 55.6779 235.05 55.6779 237.332ZM52.0099 234.644C50.7219 234.644 49.7699 235.512 49.6299 236.772H54.3899C54.2499 235.526 53.3119 234.644 52.0099 234.644ZM58.3119 233.58H64.0099V241H62.6659V234.756H59.4739L59.3899 236.408C59.2639 239.026 58.9139 241.112 57.2339 241.112C56.9819 241.112 56.7159 241.07 56.4079 240.986L56.4919 239.852C56.6179 239.88 56.7299 239.894 56.8279 239.894C58.0319 239.894 58.0879 238.074 58.1859 236.324L58.3119 233.58ZM73.3146 237.332C73.3146 237.444 73.3006 237.612 73.2866 237.738H67.2666C67.4346 239.04 68.4846 239.908 69.9546 239.908C70.8226 239.908 71.5506 239.614 72.0966 239.012L72.8386 239.88C72.1666 240.664 71.1446 241.084 69.9126 241.084C67.5186 241.084 65.9226 239.502 65.9226 237.29C65.9226 235.092 67.5046 233.51 69.6466 233.51C71.7886 233.51 73.3146 235.05 73.3146 237.332ZM69.6466 234.644C68.3586 234.644 67.4066 235.512 67.2666 236.772H72.0266C71.8866 235.526 70.9486 234.644 69.6466 234.644ZM84.7657 237.276C84.7657 239.586 83.1557 240.944 80.3837 241.098V243.716H79.0677V241.098C76.2957 240.944 74.6997 239.6 74.6997 237.276C74.6997 234.98 76.2817 233.65 79.0677 233.51V230.612H80.3837V233.51C83.1417 233.664 84.7657 234.98 84.7657 237.276ZM76.0297 237.276C76.0297 238.858 77.0377 239.768 79.0677 239.908V234.7C77.0237 234.84 76.0297 235.736 76.0297 237.276ZM80.3837 239.922C82.4137 239.768 83.4357 238.872 83.4357 237.276C83.4357 235.722 82.4137 234.84 80.3837 234.7V239.922ZM89.8433 241.084C87.6173 241.084 85.9793 239.502 85.9793 237.29C85.9793 235.078 87.6173 233.51 89.8433 233.51C92.0693 233.51 93.6933 235.078 93.6933 237.29C93.6933 239.502 92.0693 241.084 89.8433 241.084ZM89.8433 239.908C91.2713 239.908 92.3353 238.872 92.3353 237.29C92.3353 235.708 91.2713 234.686 89.8433 234.686C88.4153 234.686 87.3373 235.708 87.3373 237.29C87.3373 238.872 88.4153 239.908 89.8433 239.908ZM95.634 241V233.58H96.978V236.73H101.206V233.58H102.55V241H101.206V237.892H96.978V241H95.634Z" fill="white" fill-opacity="0.8"/>
<rect x="40" y="248" width="581" height="44" rx="8" fill="black"/>
<rect x="40.5" y="248.5" width="580" height="43" rx="7.5" stroke="black" stroke-opacity="0.2"/>
<path d="M74.62 263.4V264.966H70.3V276H68.536V264.966H64.234V263.4H74.62ZM84.1573 271.284C84.1573 271.428 84.1393 271.644 84.1213 271.806H76.3813C76.5973 273.48 77.9473 274.596 79.8373 274.596C80.9533 274.596 81.8893 274.218 82.5913 273.444L83.5453 274.56C82.6813 275.568 81.3673 276.108 79.7833 276.108C76.7053 276.108 74.6533 274.074 74.6533 271.23C74.6533 268.404 76.6873 266.37 79.4413 266.37C82.1953 266.37 84.1573 268.35 84.1573 271.284ZM79.4413 267.828C77.7853 267.828 76.5613 268.944 76.3813 270.564H82.5013C82.3213 268.962 81.1153 267.828 79.4413 267.828ZM87.5439 266.46H94.8699V276H93.1419V267.972H89.0379L88.9299 270.096C88.7679 273.462 88.3179 276.144 86.1579 276.144C85.8339 276.144 85.4919 276.09 85.0959 275.982L85.2039 274.524C85.3659 274.56 85.5099 274.578 85.6359 274.578C87.1839 274.578 87.2559 272.238 87.3819 269.988L87.5439 266.46ZM106.833 271.284C106.833 271.428 106.815 271.644 106.797 271.806H99.0571C99.2731 273.48 100.623 274.596 102.513 274.596C103.629 274.596 104.565 274.218 105.267 273.444L106.221 274.56C105.357 275.568 104.043 276.108 102.459 276.108C99.3811 276.108 97.3291 274.074 97.3291 271.23C97.3291 268.404 99.3631 266.37 102.117 266.37C104.871 266.37 106.833 268.35 106.833 271.284ZM102.117 267.828C100.461 267.828 99.2371 268.944 99.0571 270.564H105.177C104.997 268.962 103.791 267.828 102.117 267.828ZM121.556 271.212C121.556 274.182 119.486 275.928 115.922 276.126V279.492H114.23V276.126C110.666 275.928 108.614 274.2 108.614 271.212C108.614 268.26 110.648 266.55 114.23 266.37V262.644H115.922V266.37C119.468 266.568 121.556 268.26 121.556 271.212ZM110.324 271.212C110.324 273.246 111.62 274.416 114.23 274.596V267.9C111.602 268.08 110.324 269.232 110.324 271.212ZM115.922 274.614C118.532 274.416 119.846 273.264 119.846 271.212C119.846 269.214 118.532 268.08 115.922 267.9V274.614ZM128.084 276.108C125.222 276.108 123.116 274.074 123.116 271.23C123.116 268.386 125.222 266.37 128.084 266.37C130.946 266.37 133.034 268.386 133.034 271.23C133.034 274.074 130.946 276.108 128.084 276.108ZM128.084 274.596C129.92 274.596 131.288 273.264 131.288 271.23C131.288 269.196 129.92 267.882 128.084 267.882C126.248 267.882 124.862 269.196 124.862 271.23C124.862 273.264 126.248 274.596 128.084 274.596ZM135.529 276V266.46H137.257V270.51H142.693V266.46H144.421V276H142.693V272.004H137.257V276H135.529Z" fill="#5E5E5E"/>
<path d="M42.87 333.782H48.582V335H41.47V325.2H48.386V326.418H42.87V329.428H47.784V330.618H42.87V333.782ZM59.9349 327.51C61.7409 327.51 62.9729 328.546 62.9729 330.73V335H61.6289V330.884C61.6289 329.428 60.9289 328.714 59.7109 328.714C58.3669 328.714 57.4849 329.568 57.4849 331.178V335H56.1409V330.884C56.1409 329.428 55.4409 328.714 54.2229 328.714C52.8789 328.714 51.9969 329.568 51.9969 331.178V335H50.6529V327.58H51.9409V328.686C52.4729 327.93 53.3829 327.51 54.5029 327.51C55.6369 327.51 56.5889 327.958 57.0789 328.882C57.6389 328.042 58.6749 327.51 59.9349 327.51ZM68.1479 327.51C70.1779 327.51 71.3259 328.49 71.3259 330.52V335H70.0519V334.02C69.6039 334.692 68.7779 335.084 67.6159 335.084C65.9359 335.084 64.8719 334.188 64.8719 332.9C64.8719 331.71 65.6419 330.73 67.8539 330.73H69.9819V330.464C69.9819 329.33 69.3239 328.672 67.9939 328.672C67.1119 328.672 66.2159 328.98 65.6419 329.47L65.0819 328.462C65.8519 327.846 66.9579 327.51 68.1479 327.51ZM67.8399 334.048C68.8479 334.048 69.6459 333.586 69.9819 332.732V331.696H67.9099C66.5799 331.696 66.2019 332.214 66.2019 332.844C66.2019 333.586 66.8179 334.048 67.8399 334.048ZM74.4851 326.152C73.9671 326.152 73.5751 325.774 73.5751 325.284C73.5751 324.794 73.9671 324.402 74.4851 324.402C75.0031 324.402 75.3951 324.78 75.3951 325.256C75.3951 325.76 75.0171 326.152 74.4851 326.152ZM73.8131 335V327.58H75.1571V335H73.8131ZM77.7232 335V324.612H79.0672V335H77.7232Z" fill="white" fill-opacity="0.8"/>
<rect x="40" y="342" width="581" height="44" rx="8" fill="black"/>
<rect x="40.5" y="342.5" width="580" height="43" rx="7.5" stroke="black" stroke-opacity="0.2"/>
<path d="M66.87 367.782H72.582V369H65.47V359.2H72.386V360.418H66.87V363.428H71.784V364.618H66.87V367.782ZM83.9349 361.51C85.7409 361.51 86.9729 362.546 86.9729 364.73V369H85.6289V364.884C85.6289 363.428 84.9289 362.714 83.7109 362.714C82.3669 362.714 81.4849 363.568 81.4849 365.178V369H80.1409V364.884C80.1409 363.428 79.4409 362.714 78.2229 362.714C76.8789 362.714 75.9969 363.568 75.9969 365.178V369H74.6529V361.58H75.9409V362.686C76.4729 361.93 77.3829 361.51 78.5029 361.51C79.6369 361.51 80.5889 361.958 81.0789 362.882C81.6389 362.042 82.6749 361.51 83.9349 361.51ZM92.1479 361.51C94.1779 361.51 95.3259 362.49 95.3259 364.52V369H94.0519V368.02C93.6039 368.692 92.7779 369.084 91.6159 369.084C89.9359 369.084 88.8719 368.188 88.8719 366.9C88.8719 365.71 89.6419 364.73 91.8539 364.73H93.9819V364.464C93.9819 363.33 93.3239 362.672 91.9939 362.672C91.1119 362.672 90.2159 362.98 89.6419 363.47L89.0819 362.462C89.8519 361.846 90.9579 361.51 92.1479 361.51ZM91.8399 368.048C92.8479 368.048 93.6459 367.586 93.9819 366.732V365.696H91.9099C90.5799 365.696 90.2019 366.214 90.2019 366.844C90.2019 367.586 90.8179 368.048 91.8399 368.048ZM98.4851 360.152C97.9671 360.152 97.5751 359.774 97.5751 359.284C97.5751 358.794 97.9671 358.402 98.4851 358.402C99.0031 358.402 99.3951 358.78 99.3951 359.256C99.3951 359.76 99.0171 360.152 98.4851 360.152ZM97.8131 369V361.58H99.1571V369H97.8131ZM101.723 369V358.612H103.067V369H101.723Z" fill="white" fill-opacity="0.8"/>
<path d="M48.26 419.2V420.418H44.9V429H43.528V420.418H40.182V419.2H48.26ZM49.5598 429V421.58H50.9038V426.984L55.4538 421.58H56.6718V429H55.3278V423.596L50.7918 429H49.5598ZM59.2805 421.58H66.1545V429H64.8105V422.756H60.6245V429H59.2805V421.58ZM75.6929 429.084C73.4669 429.084 71.8289 427.502 71.8289 425.29C71.8289 423.078 73.4669 421.51 75.6929 421.51C77.9189 421.51 79.5429 423.078 79.5429 425.29C79.5429 427.502 77.9189 429.084 75.6929 429.084ZM75.6929 427.908C77.1209 427.908 78.1849 426.872 78.1849 425.29C78.1849 423.708 77.1209 422.686 75.6929 422.686C74.2649 422.686 73.1869 423.708 73.1869 425.29C73.1869 426.872 74.2649 427.908 75.6929 427.908ZM85.2636 421.832C87.3636 421.832 88.8336 423.316 88.8336 425.444C88.8336 427.628 87.2656 429.112 84.9976 429.112C82.4636 429.112 81.0496 427.292 81.0496 424.17C81.0496 421.104 82.2956 419.438 84.8576 418.878L88.2456 418.122L88.4416 419.354L85.3196 420.026C83.3876 420.446 82.4776 421.398 82.3376 423.33C82.9676 422.378 84.0176 421.832 85.2636 421.832ZM85.0256 427.992C86.4676 427.992 87.4616 426.956 87.4616 425.486C87.4616 424.016 86.4816 423.036 85.0256 423.036C83.5696 423.036 82.5756 424.016 82.5756 425.486C82.5756 426.956 83.5976 427.992 85.0256 427.992ZM94.8617 424.086C96.7097 424.086 97.7037 424.982 97.7037 426.508C97.7037 428.104 96.5837 429 94.6237 429H91.5017V422.756H89.2337V421.58H92.8457V424.086H94.8617ZM94.5817 427.978C95.7437 427.978 96.3457 427.46 96.3457 426.48C96.3457 425.528 95.7577 425.08 94.5817 425.08H92.8457V427.978H94.5817ZM106.127 425.332C106.127 425.444 106.113 425.612 106.099 425.738H100.079C100.247 427.04 101.297 427.908 102.767 427.908C103.635 427.908 104.363 427.614 104.909 427.012L105.651 427.88C104.979 428.664 103.957 429.084 102.725 429.084C100.331 429.084 98.7351 427.502 98.7351 425.29C98.7351 423.092 100.317 421.51 102.459 421.51C104.601 421.51 106.127 423.05 106.127 425.332ZM102.459 422.644C101.171 422.644 100.219 423.512 100.079 424.772H104.839C104.699 423.526 103.761 422.644 102.459 422.644ZM113.588 429L111.096 425.864H109.556V429H108.212V421.58H109.556V424.716H111.124L113.532 421.58H114.974L112.16 425.15L115.17 429H113.588ZM121.986 421.58V422.756H119.27V429H117.926V422.756H115.21V421.58H121.986ZM126.007 421.51C128.037 421.51 129.185 422.49 129.185 424.52V429H127.911V428.02C127.463 428.692 126.637 429.084 125.475 429.084C123.795 429.084 122.731 428.188 122.731 426.9C122.731 425.71 123.501 424.73 125.713 424.73H127.841V424.464C127.841 423.33 127.183 422.672 125.853 422.672C124.971 422.672 124.075 422.98 123.501 423.47L122.941 422.462C123.711 421.846 124.817 421.51 126.007 421.51ZM125.699 428.048C126.707 428.048 127.505 427.586 127.841 426.732V425.696H125.769C124.439 425.696 124.061 426.214 124.061 426.844C124.061 427.586 124.677 428.048 125.699 428.048Z" fill="white" fill-opacity="0.8"/>
<rect x="40" y="436" width="581" height="44" rx="8" fill="black"/>
<rect x="40.5" y="436.5" width="580" height="43" rx="7.5" stroke="black" stroke-opacity="0.2"/>
<path d="M72.26 453.2V454.418H68.9V463H67.528V454.418H64.182V453.2H72.26ZM73.5598 463V455.58H74.9038V460.984L79.4538 455.58H80.6718V463H79.3278V457.596L74.7918 463H73.5598ZM83.2805 455.58H90.1545V463H88.8105V456.756H84.6245V463H83.2805V455.58ZM99.6929 463.084C97.4669 463.084 95.8289 461.502 95.8289 459.29C95.8289 457.078 97.4669 455.51 99.6929 455.51C101.919 455.51 103.543 457.078 103.543 459.29C103.543 461.502 101.919 463.084 99.6929 463.084ZM99.6929 461.908C101.121 461.908 102.185 460.872 102.185 459.29C102.185 457.708 101.121 456.686 99.6929 456.686C98.2649 456.686 97.1869 457.708 97.1869 459.29C97.1869 460.872 98.2649 461.908 99.6929 461.908ZM109.264 455.832C111.364 455.832 112.834 457.316 112.834 459.444C112.834 461.628 111.266 463.112 108.998 463.112C106.464 463.112 105.05 461.292 105.05 458.17C105.05 455.104 106.296 453.438 108.858 452.878L112.246 452.122L112.442 453.354L109.32 454.026C107.388 454.446 106.478 455.398 106.338 457.33C106.968 456.378 108.018 455.832 109.264 455.832ZM109.026 461.992C110.468 461.992 111.462 460.956 111.462 459.486C111.462 458.016 110.482 457.036 109.026 457.036C107.57 457.036 106.576 458.016 106.576 459.486C106.576 460.956 107.598 461.992 109.026 461.992ZM118.862 458.086C120.71 458.086 121.704 458.982 121.704 460.508C121.704 462.104 120.584 463 118.624 463H115.502V456.756H113.234V455.58H116.846V458.086H118.862ZM118.582 461.978C119.744 461.978 120.346 461.46 120.346 460.48C120.346 459.528 119.758 459.08 118.582 459.08H116.846V461.978H118.582ZM130.127 459.332C130.127 459.444 130.113 459.612 130.099 459.738H124.079C124.247 461.04 125.297 461.908 126.767 461.908C127.635 461.908 128.363 461.614 128.909 461.012L129.651 461.88C128.979 462.664 127.957 463.084 126.725 463.084C124.331 463.084 122.735 461.502 122.735 459.29C122.735 457.092 124.317 455.51 126.459 455.51C128.601 455.51 130.127 457.05 130.127 459.332ZM126.459 456.644C125.171 456.644 124.219 457.512 124.079 458.772H128.839C128.699 457.526 127.761 456.644 126.459 456.644ZM137.588 463L135.096 459.864H133.556V463H132.212V455.58H133.556V458.716H135.124L137.532 455.58H138.974L136.16 459.15L139.17 463H137.588ZM145.986 455.58V456.756H143.27V463H141.926V456.756H139.21V455.58H145.986ZM150.007 455.51C152.037 455.51 153.185 456.49 153.185 458.52V463H151.911V462.02C151.463 462.692 150.637 463.084 149.475 463.084C147.795 463.084 146.731 462.188 146.731 460.9C146.731 459.71 147.501 458.73 149.713 458.73H151.841V458.464C151.841 457.33 151.183 456.672 149.853 456.672C148.971 456.672 148.075 456.98 147.501 457.47L146.941 456.462C147.711 455.846 148.817 455.51 150.007 455.51ZM149.699 462.048C150.707 462.048 151.505 461.586 151.841 460.732V459.696H149.769C148.439 459.696 148.061 460.214 148.061 460.844C148.061 461.586 148.677 462.048 149.699 462.048Z" fill="white" fill-opacity="0.8"/>
<path d="M48.12 523L44.942 518.688H42.898V523H41.526V513.2H42.898V517.456H44.97L48.05 513.2H49.548L46.048 517.946L49.716 523H48.12ZM54.0093 523.084C51.7833 523.084 50.1453 521.502 50.1453 519.29C50.1453 517.078 51.7833 515.51 54.0093 515.51C56.2353 515.51 57.8593 517.078 57.8593 519.29C57.8593 521.502 56.2353 523.084 54.0093 523.084ZM54.0093 521.908C55.4373 521.908 56.5013 520.872 56.5013 519.29C56.5013 517.708 55.4373 516.686 54.0093 516.686C52.5813 516.686 51.5033 517.708 51.5033 519.29C51.5033 520.872 52.5813 521.908 54.0093 521.908ZM67.094 515.58H68.354V523H67.136V517.582L64.364 522.16H63.776L61.032 517.568V523H59.8V515.58H61.186L64.098 520.592L67.094 515.58ZM78.264 515.58H79.524V523H78.306V517.582L75.534 522.16H74.946L72.202 517.568V523H70.97V515.58H72.356L75.268 520.592L78.264 515.58ZM88.8459 519.332C88.8459 519.444 88.8319 519.612 88.8179 519.738H82.7979C82.9659 521.04 84.0159 521.908 85.4859 521.908C86.3539 521.908 87.0819 521.614 87.6279 521.012L88.3699 521.88C87.6979 522.664 86.6759 523.084 85.4439 523.084C83.0499 523.084 81.4539 521.502 81.4539 519.29C81.4539 517.092 83.0359 515.51 85.1779 515.51C87.3199 515.51 88.8459 517.05 88.8459 519.332ZM85.1779 516.644C83.8899 516.644 82.9379 517.512 82.7979 518.772H87.5579C87.4179 517.526 86.4799 516.644 85.1779 516.644ZM90.9309 523V515.58H92.2749V518.73H96.5029V515.58H97.8469V523H96.5029V519.892H92.2749V523H90.9309ZM105.99 515.58V516.756H103.274V523H101.93V516.756H99.2142V515.58H105.99ZM110.011 515.51C112.041 515.51 113.189 516.49 113.189 518.52V523H111.915V522.02C111.467 522.692 110.641 523.084 109.479 523.084C107.799 523.084 106.735 522.188 106.735 520.9C106.735 519.71 107.505 518.73 109.717 518.73H111.845V518.464C111.845 517.33 111.187 516.672 109.857 516.672C108.975 516.672 108.079 516.98 107.505 517.47L106.945 516.462C107.715 515.846 108.821 515.51 110.011 515.51ZM109.703 522.048C110.711 522.048 111.509 521.586 111.845 520.732V519.696H109.773C108.443 519.696 108.065 520.214 108.065 520.844C108.065 521.586 108.681 522.048 109.703 522.048ZM119.543 515.51C121.713 515.51 123.295 517.022 123.295 519.29C123.295 521.572 121.713 523.084 119.543 523.084C118.493 523.084 117.569 522.678 116.953 521.88V525.716H115.609V515.58H116.897V516.756C117.499 515.93 118.451 515.51 119.543 515.51ZM119.431 521.908C120.859 521.908 121.937 520.872 121.937 519.29C121.937 517.722 120.859 516.686 119.431 516.686C118.017 516.686 116.939 517.722 116.939 519.29C116.939 520.872 118.017 521.908 119.431 521.908ZM125.247 523V515.58H126.591V520.984L131.141 515.58H132.359V523H131.015V517.596L126.479 523H125.247ZM138.44 514.614C137.082 514.614 136.256 513.942 136.242 512.682H137.152C137.166 513.382 137.67 513.83 138.426 513.83C139.196 513.83 139.7 513.382 139.714 512.682H140.652C140.624 513.942 139.798 514.614 138.44 514.614ZM134.968 523V515.58H136.312V520.984L140.862 515.58H142.08V523H140.736V517.596L136.2 523H134.968Z" fill="white" fill-opacity="0.8"/>
<rect x="40" y="530" width="581" height="44" rx="8" fill="black"/>
<rect x="40.5" y="530.5" width="580" height="43" rx="7.5" stroke="black" stroke-opacity="0.2"/>
<path d="M72.12 557L68.942 552.688H66.898V557H65.526V547.2H66.898V551.456H68.97L72.05 547.2H73.548L70.048 551.946L73.716 557H72.12ZM78.0093 557.084C75.7833 557.084 74.1453 555.502 74.1453 553.29C74.1453 551.078 75.7833 549.51 78.0093 549.51C80.2353 549.51 81.8593 551.078 81.8593 553.29C81.8593 555.502 80.2353 557.084 78.0093 557.084ZM78.0093 555.908C79.4373 555.908 80.5013 554.872 80.5013 553.29C80.5013 551.708 79.4373 550.686 78.0093 550.686C76.5813 550.686 75.5033 551.708 75.5033 553.29C75.5033 554.872 76.5813 555.908 78.0093 555.908ZM91.094 549.58H92.354V557H91.136V551.582L88.364 556.16H87.776L85.032 551.568V557H83.8V549.58H85.186L88.098 554.592L91.094 549.58ZM102.264 549.58H103.524V557H102.306V551.582L99.534 556.16H98.946L96.202 551.568V557H94.97V549.58H96.356L99.268 554.592L102.264 549.58ZM112.846 553.332C112.846 553.444 112.832 553.612 112.818 553.738H106.798C106.966 555.04 108.016 555.908 109.486 555.908C110.354 555.908 111.082 555.614 111.628 555.012L112.37 555.88C111.698 556.664 110.676 557.084 109.444 557.084C107.05 557.084 105.454 555.502 105.454 553.29C105.454 551.092 107.036 549.51 109.178 549.51C111.32 549.51 112.846 551.05 112.846 553.332ZM109.178 550.644C107.89 550.644 106.938 551.512 106.798 552.772H111.558C111.418 551.526 110.48 550.644 109.178 550.644ZM114.931 557V549.58H116.275V552.73H120.503V549.58H121.847V557H120.503V553.892H116.275V557H114.931ZM129.99 549.58V550.756H127.274V557H125.93V550.756H123.214V549.58H129.99ZM134.011 549.51C136.041 549.51 137.189 550.49 137.189 552.52V557H135.915V556.02C135.467 556.692 134.641 557.084 133.479 557.084C131.799 557.084 130.735 556.188 130.735 554.9C130.735 553.71 131.505 552.73 133.717 552.73H135.845V552.464C135.845 551.33 135.187 550.672 133.857 550.672C132.975 550.672 132.079 550.98 131.505 551.47L130.945 550.462C131.715 549.846 132.821 549.51 134.011 549.51ZM133.703 556.048C134.711 556.048 135.509 555.586 135.845 554.732V553.696H133.773C132.443 553.696 132.065 554.214 132.065 554.844C132.065 555.586 132.681 556.048 133.703 556.048ZM143.543 549.51C145.713 549.51 147.295 551.022 147.295 553.29C147.295 555.572 145.713 557.084 143.543 557.084C142.493 557.084 141.569 556.678 140.953 555.88V559.716H139.609V549.58H140.897V550.756C141.499 549.93 142.451 549.51 143.543 549.51ZM143.431 555.908C144.859 555.908 145.937 554.872 145.937 553.29C145.937 551.722 144.859 550.686 143.431 550.686C142.017 550.686 140.939 551.722 140.939 553.29C140.939 554.872 142.017 555.908 143.431 555.908ZM149.247 557V549.58H150.591V554.984L155.141 549.58H156.359V557H155.015V551.596L150.479 557H149.247ZM162.44 548.614C161.082 548.614 160.256 547.942 160.242 546.682H161.152C161.166 547.382 161.67 547.83 162.426 547.83C163.196 547.83 163.7 547.382 163.714 546.682H164.652C164.624 547.942 163.798 548.614 162.44 548.614ZM158.968 557V549.58H160.312V554.984L164.862 549.58H166.08V557H164.736V551.596L160.2 557H158.968Z" fill="white" fill-opacity="0.8"/>
<rect x="255.5" y="620" width="150" height="44" rx="8" fill="#009DB3"/>
<path d="M287.132 648.144C283.262 648.144 280.418 645.39 280.418 641.7C280.418 638.01 283.262 635.256 287.132 635.256C290.966 635.256 293.81 637.992 293.81 641.7C293.81 645.408 290.966 648.144 287.132 648.144ZM287.132 646.542C289.922 646.542 292.01 644.49 292.01 641.7C292.01 638.91 289.922 636.858 287.132 636.858C284.306 636.858 282.218 638.91 282.218 641.7C282.218 644.49 284.306 646.542 287.132 646.542ZM303.331 638.46V639.972H299.839V648H298.111V639.972H294.619V638.46H303.331ZM305.098 638.46H313.936V648H312.208V639.972H306.826V648H305.098V638.46ZM322.337 638.37C325.127 638.37 327.161 640.314 327.161 643.23C327.161 646.164 325.127 648.108 322.337 648.108C320.987 648.108 319.799 647.586 319.007 646.56V651.492H317.279V638.46H318.935V639.972C319.709 638.91 320.933 638.37 322.337 638.37ZM322.193 646.596C324.029 646.596 325.415 645.264 325.415 643.23C325.415 641.214 324.029 639.882 322.193 639.882C320.375 639.882 318.989 641.214 318.989 643.23C318.989 645.264 320.375 646.596 322.193 646.596ZM332.986 638.37C335.596 638.37 337.072 639.63 337.072 642.24V648H335.434V646.74C334.858 647.604 333.796 648.108 332.302 648.108C330.142 648.108 328.774 646.956 328.774 645.3C328.774 643.77 329.764 642.51 332.608 642.51H335.344V642.168C335.344 640.71 334.498 639.864 332.788 639.864C331.654 639.864 330.502 640.26 329.764 640.89L329.044 639.594C330.034 638.802 331.456 638.37 332.986 638.37ZM332.59 646.776C333.886 646.776 334.912 646.182 335.344 645.084V643.752H332.68C330.97 643.752 330.484 644.418 330.484 645.228C330.484 646.182 331.276 646.776 332.59 646.776ZM346.682 643.05C347.942 643.374 348.536 644.166 348.536 645.372C348.536 647.028 347.312 648 344.774 648H340.184V638.46H344.612C346.862 638.46 348.212 639.342 348.212 640.908C348.212 641.934 347.636 642.672 346.682 643.05ZM341.876 639.792V642.564H344.468C345.782 642.564 346.484 642.078 346.484 641.16C346.484 640.242 345.782 639.792 344.468 639.792H341.876ZM344.648 646.668C346.07 646.668 346.808 646.236 346.808 645.264C346.808 644.274 346.178 643.806 344.756 643.806H341.876V646.668H344.648ZM351.24 648V638.46H352.968V645.408L358.818 638.46H360.384V648H358.656V641.052L352.824 648H351.24ZM370.848 638.46V639.972H367.356V648H365.628V639.972H362.136V638.46H370.848ZM377.025 641.7C379.455 641.718 380.751 642.852 380.751 644.814C380.751 646.884 379.311 648.036 376.755 648.018L372.615 648V638.46H374.343V641.682L377.025 641.7ZM376.611 646.704C378.177 646.722 378.987 646.074 378.987 644.796C378.987 643.536 378.195 642.996 376.611 642.978L374.343 642.942V646.686L376.611 646.704Z" fill="white"/>
</svg>
