<svg width="80" height="80" viewBox="0 0 80 80" fill="none" xmlns="http://www.w3.org/2000/svg">
<path d="M67.515 80H12.485C5.58736 80 0 74.4126 0 67.515V12.485C0 5.59489 5.58736 0 12.485 0H67.515C74.4051 0 80 5.58736 80 12.485V67.515C80 74.4051 74.4051 80 67.515 80Z" fill="black"/>
<path d="M63.4932 50.5273C62.5444 52.7185 61.3321 54.6764 59.8562 56.4158C58.3727 58.1553 56.686 59.6312 54.8034 60.8586C52.9134 62.0785 50.8426 63.0122 48.5911 63.6598C46.3396 64.2999 43.9902 64.6237 41.5429 64.6237C38.064 64.6237 34.8035 63.9761 31.7538 62.6884C28.7041 61.4008 26.061 59.6387 23.802 57.4098C21.5504 55.1809 19.7658 52.5529 18.4556 49.5258C17.1453 46.4987 16.4902 43.2758 16.4902 39.8345C16.4902 36.4836 17.1303 33.321 18.4179 30.339C19.7056 27.3571 21.4526 24.7592 23.6664 22.5529C25.8727 20.3466 28.4707 18.592 31.4526 17.3044C34.4345 16.0167 37.5971 15.3691 40.9481 15.3691C46.0083 15.3691 50.5188 16.6342 54.4646 19.1644C58.4104 21.6945 61.4149 25.2562 63.4782 29.8496H53.6288C51.9947 27.7487 50.2026 26.2201 48.2523 25.2788C46.302 24.3375 43.93 23.8631 41.1363 23.8631C38.9074 23.8631 36.8215 24.2698 34.8938 25.083C32.9661 25.8963 31.2869 27.0258 29.8712 28.464C28.4556 29.9023 27.3487 31.5966 26.558 33.5469C25.7598 35.4972 25.3682 37.6131 25.3682 39.8872C25.3682 42.1161 25.7824 44.2246 26.6257 46.1975C27.4616 48.1704 28.6137 49.8872 30.067 51.3481C31.5279 52.8089 33.2221 53.9686 35.1499 54.827C37.0776 55.6854 39.1408 56.1147 41.3321 56.1147C43.6062 56.1147 45.6469 55.6854 47.4466 54.827C49.2463 53.9686 51.1363 52.5303 53.1092 50.5122H63.4932V50.5273Z" fill="white"/>
</svg>
