<svg width="149" height="24" viewBox="0 0 149 24" fill="none" xmlns="http://www.w3.org/2000/svg">
<path d="M35.5685 7.11276H32.8345V4.5H41.032V7.11276H38.3003V19.2388H35.5685V7.11276Z" fill="white"/>
<path d="M52.9783 15.9681C52.8196 16.486 52.5654 16.9619 52.2201 17.3935C51.8748 17.825 51.4689 18.1983 51.0047 18.5109C50.5382 18.8235 50.0272 19.0661 49.4697 19.2387C48.9122 19.4114 48.3266 19.4977 47.7154 19.4977C46.878 19.4977 46.0918 19.3507 45.3616 19.0591C44.6291 18.7675 43.9946 18.3616 43.458 17.8437C42.9192 17.3258 42.4969 16.7169 42.1913 16.0194C41.8857 15.3219 41.7318 14.5661 41.7318 13.7566C41.7318 12.9448 41.881 12.1843 42.1796 11.4728C42.4782 10.7613 42.8912 10.1431 43.416 9.61817C43.9409 9.09329 44.5591 8.68038 45.2706 8.38178C45.9821 8.08318 46.7426 7.93387 47.5545 7.93387C48.3779 7.93387 49.1408 8.08318 49.8383 8.38178C50.5358 8.68038 51.1377 9.09329 51.6439 9.61817C52.1501 10.1431 52.5444 10.7682 52.8313 11.4938C53.1182 12.2193 53.2605 13.0124 53.2605 13.8779C53.2605 14.0902 53.2535 14.2675 53.2395 14.4074C53.2256 14.5474 53.1999 14.7107 53.1602 14.895H44.6058C44.7644 15.5739 45.1143 16.1057 45.6532 16.4907C46.1921 16.8756 46.8593 17.0692 47.6571 17.0692C48.2147 17.0692 48.6742 16.9876 49.0335 16.8196C49.3927 16.654 49.745 16.3717 50.0902 15.9728H52.9783V15.9681ZM50.6431 12.5575C50.4705 11.839 50.1252 11.2955 49.605 10.9222C49.0871 10.5513 48.4153 10.3647 47.5895 10.3647C46.7916 10.3647 46.1338 10.5513 45.6159 10.9222C45.098 11.2955 44.7317 11.839 44.5195 12.5575H50.6431Z" fill="white"/>
<path d="M57.7839 13.5351L54.392 8.19058H57.385L59.3773 11.5195L61.3322 8.19058H64.3252L60.9543 13.5351L64.8827 19.2388H61.6914L59.3773 15.448L57.0654 19.2388H53.8741L57.7839 13.5351Z" fill="white"/>
<path d="M66.0189 8.19058H68.6713V12.4573H73.5375V8.19058H76.19V19.2388H73.5375V14.8695H68.6713V19.2388H66.0189V8.19058Z" fill="white"/>
<path d="M77.8252 13.7333C77.8252 12.9215 77.9769 12.1656 78.2848 11.4611C78.5904 10.7566 79.0103 10.1407 79.5422 9.61584C80.0741 9.09095 80.7016 8.67805 81.4271 8.37945C82.1503 8.08084 82.9248 7.93153 83.7506 7.93153C84.5484 7.93153 85.3019 8.08551 86.0134 8.39111C86.7249 8.69671 87.3431 9.11196 87.868 9.63684C88.3929 10.1617 88.8082 10.7776 89.1138 11.4821C89.4194 12.1866 89.5733 12.9378 89.5733 13.7356C89.5733 14.5334 89.4194 15.2823 89.1138 15.9798C88.8082 16.6773 88.3882 17.2861 87.8564 17.804C87.3245 18.3219 86.7039 18.7348 85.9924 19.0404C85.2809 19.346 84.5204 19.5 83.7086 19.5C82.8968 19.5 82.1339 19.346 81.4154 19.0404C80.6969 18.7348 80.0717 18.3219 79.5398 17.804C79.008 17.2861 78.5881 16.6773 78.2825 15.9798C77.9769 15.2799 77.8252 14.5311 77.8252 13.7333ZM83.6876 17.0645C84.1262 17.0645 84.5414 16.9782 84.9333 16.8056C85.3252 16.633 85.6682 16.3927 85.9598 16.0871C86.2514 15.7815 86.48 15.4269 86.6479 15.021C86.8136 14.6151 86.8976 14.1858 86.8976 13.7356C86.8976 13.2574 86.8136 12.8141 86.6479 12.4106C86.4823 12.0046 86.2514 11.6501 85.9598 11.3445C85.6658 11.0389 85.3229 10.7986 84.9217 10.626C84.5228 10.4533 84.0982 10.367 83.6456 10.367C83.221 10.367 82.8151 10.458 82.4279 10.6376C82.043 10.8172 81.7071 11.0552 81.4201 11.3561C81.1332 11.6547 80.9092 12.007 80.7413 12.4129C80.5756 12.8188 80.4917 13.255 80.4917 13.7193C80.4917 14.1835 80.5756 14.6197 80.7413 15.0257C80.9069 15.4316 81.1355 15.7862 81.4294 16.0918C81.721 16.3974 82.0616 16.6376 82.4466 16.8103C82.8385 16.9782 83.249 17.0645 83.6876 17.0645Z" fill="white"/>
<path d="M94.7965 8.19058H96.8704L101.478 19.2388H98.6456L95.8322 11.8998L93.0212 19.2388H90.1892L94.7965 8.19058Z" fill="white"/>
<path d="M102.096 13.7333C102.096 12.9215 102.248 12.1656 102.556 11.4611C102.861 10.7566 103.281 10.1407 103.813 9.61584C104.345 9.09095 104.972 8.67805 105.698 8.37945C106.421 8.08084 107.195 7.93153 108.021 7.93153C108.819 7.93153 109.573 8.08551 110.284 8.39111C110.996 8.69671 111.614 9.11196 112.139 9.63684C112.664 10.1617 113.079 10.7776 113.384 11.4821C113.69 12.1866 113.844 12.9378 113.844 13.7356C113.844 14.5334 113.69 15.2823 113.384 15.9798C113.079 16.6773 112.659 17.2861 112.127 17.804C111.595 18.3219 110.975 18.7348 110.263 19.0404C109.552 19.346 108.791 19.5 107.979 19.5C107.167 19.5 106.405 19.346 105.686 19.0404C104.968 18.7348 104.342 18.3219 103.811 17.804C103.279 17.2861 102.859 16.6773 102.553 15.9798C102.248 15.2799 102.096 14.5311 102.096 13.7333ZM107.958 17.0645C108.397 17.0645 108.812 16.9782 109.204 16.8056C109.596 16.633 109.939 16.3927 110.23 16.0871C110.522 15.7815 110.751 15.4269 110.919 15.021C111.084 14.6151 111.168 14.1858 111.168 13.7356C111.168 13.2574 111.084 12.8141 110.919 12.4106C110.753 12.0046 110.522 11.6501 110.23 11.3445C109.937 11.0389 109.594 10.7986 109.192 10.626C108.793 10.4533 108.369 10.367 107.916 10.367C107.492 10.367 107.086 10.458 106.699 10.6376C106.314 10.8172 105.978 11.0552 105.691 11.3561C105.404 11.6547 105.18 12.007 105.012 12.4129C104.846 12.8188 104.762 13.255 104.762 13.7193C104.762 14.1835 104.846 14.6197 105.012 15.0257C105.178 15.4316 105.406 15.7862 105.7 16.0918C105.992 16.3974 106.332 16.6376 106.717 16.8103C107.107 16.9782 107.52 17.0645 107.958 17.0645Z" fill="white"/>
<path d="M115.477 8.19058H121.738V10.6027H118.129V19.2388H115.477V8.19058Z" fill="white"/>
<path d="M123.173 8.19058H125.807V15.4876L130.752 8.19058H133.444V19.2388H130.811V11.9394L125.865 19.2388H123.173V8.19058Z" fill="white"/>
<path d="M135.598 8.19058H138.229V15.4876L143.177 8.19058H145.869V19.2388H143.235V11.9394L138.29 19.2388H135.598V8.19058Z" fill="white"/>
<path fill-rule="evenodd" clip-rule="evenodd" d="M20.2547 0C22.3216 9.38155e-05 23.9999 1.67617 24 3.74531V20.2547C23.9999 22.3216 22.3216 23.9999 20.2547 24H3.74531C1.67617 23.9999 9.37148e-05 22.3238 0 20.2547V3.74531C9.38725e-05 1.67843 1.67617 9.38982e-05 3.74531 0H20.2547ZM12.2848 4.61074C11.2795 4.61074 10.3305 4.80511 9.43594 5.19141C8.54146 5.57768 7.76223 6.104 7.10039 6.76582C6.43626 7.42769 5.91168 8.20684 5.52539 9.10137C5.13911 9.99592 4.94767 10.945 4.94766 11.9502C4.94766 12.9826 5.14404 13.9495 5.53711 14.8576C5.93018 15.7657 6.46537 16.5544 7.14082 17.223C7.81845 17.8916 8.61141 18.42 9.52617 18.8063C10.441 19.1925 11.4193 19.3869 12.4629 19.3869C13.197 19.3869 13.9021 19.29 14.5775 19.098C15.253 18.9038 15.8744 18.6232 16.4414 18.2572C17.0061 17.889 17.5123 17.4466 17.9572 16.9248C18.4 16.403 18.7636 15.8155 19.0482 15.1582V15.1535H15.9328C15.341 15.7589 14.7741 16.1903 14.2342 16.4479C13.6943 16.7053 13.0823 16.8345 12.4002 16.8346C11.7428 16.8346 11.1234 16.7054 10.5451 16.4479C9.96689 16.1903 9.45871 15.8425 9.02051 15.4043C8.58452 14.9661 8.23884 14.451 7.98809 13.8592C7.73507 13.2673 7.61074 12.6347 7.61074 11.966C7.61075 11.2839 7.72816 10.6491 7.96758 10.0641C8.20478 9.47897 8.53722 8.97034 8.96191 8.53887C9.38656 8.10752 9.89016 7.76854 10.4684 7.52461C11.0466 7.28066 11.6724 7.15901 12.341 7.15898C13.1791 7.15898 13.8911 7.30141 14.4762 7.58379C15.0611 7.86617 15.5985 8.32474 16.0887 8.95488H19.0436C18.4246 7.57687 17.5232 6.50825 16.3395 5.74922C15.1558 4.99026 13.8027 4.61075 12.2848 4.61074Z" fill="white"/>
</svg>
