<svg width="1920" height="1080" viewBox="0 0 1920 1080" fill="none"
    xmlns="http://www.w3.org/2000/svg">
    <g clip-path="url(#clip0_200_681)">
        <mask id="mask0_200_681" style="mask-type:luminance" maskUnits="userSpaceOnUse" x="0" y="0"
            width="1920" height="1080">
            <path d="M1920 0H0V1080H1920V0Z" fill="white" />
        </mask>
        <g mask="url(#mask0_200_681)" opacity="0.8" fill="#6d6d6d">
            <path
                d="M1130.33 616.321C1123.45 632.208 1114.66 646.402 1103.96 659.013C1093.21 671.624 1080.98 682.325 1067.33 691.224C1053.63 700.068 1038.61 706.837 1022.29 711.532C1005.97 716.173 988.934 718.52 971.191 718.52C945.969 718.52 922.33 713.825 900.22 704.49C878.109 695.154 858.947 682.379 842.569 666.22C826.246 650.06 813.307 631.007 803.808 609.061C794.309 587.114 789.559 563.748 789.559 538.799C789.559 514.505 794.2 491.575 803.535 469.956C812.87 448.337 825.536 429.503 841.586 413.507C857.582 397.511 876.417 384.791 898.036 375.455C919.655 366.12 942.584 361.425 966.878 361.425C1003.57 361.425 1036.27 370.597 1064.87 388.94C1093.48 407.283 1115.26 433.106 1130.22 466.408H1058.81C1046.97 451.177 1033.97 440.094 1019.83 433.27C1005.69 426.446 988.497 423.006 968.243 423.006C952.083 423.006 936.961 425.954 922.985 431.85C909.009 437.746 896.835 445.935 886.571 456.363C876.308 466.79 868.283 479.074 862.55 493.213C856.764 507.353 853.925 522.694 853.925 539.181C853.925 555.34 856.927 570.627 863.042 584.93C869.101 599.234 877.454 611.681 887.991 622.272C898.582 632.863 910.865 641.271 924.841 647.494C938.817 653.718 953.776 656.83 969.663 656.83C986.15 656.83 1000.94 653.718 1013.99 647.494C1027.04 641.271 1040.74 630.843 1055.05 616.212H1130.33V616.321Z"
            />
            <path fill-rule="evenodd" clip-rule="evenodd"
                d="M1920 1080H0V0H1920V1080ZM760.516 250C710.508 250 670 290.563 670 340.516V739.484C670 789.492 710.508 830 760.516 830H1159.48C1209.44 830 1250 789.437 1250 739.484V340.516C1250 290.508 1209.44 250 1159.48 250H760.516Z"
            />
        </g>
    </g>
    <defs>
        <clipPath id="clip0_200_681">
            <rect width="1920" height="1080" fill="white" />
        </clipPath>
    </defs>
</svg>