<svg width="1920" height="1080" viewBox="0 0 1920 1080" fill="none" xmlns="http://www.w3.org/2000/svg">
<g clip-path="url(#clip0_157_386)">
<mask id="mask0_157_386" style="mask-type:luminance" maskUnits="userSpaceOnUse" x="0" y="0" width="1920" height="1080">
<path d="M1920 0H0V1080H1920V0Z" fill="white"/>
</mask>
<g mask="url(#mask0_157_386)">
<path d="M1195.03 645.581C1185.54 667.494 1173.42 687.072 1158.66 704.467C1143.83 721.862 1126.96 736.621 1108.13 748.895C1089.23 761.094 1068.52 770.431 1046.01 776.907C1023.49 783.307 1000 786.545 975.527 786.545C940.738 786.545 908.132 780.07 877.635 767.193C847.138 754.316 820.708 736.696 798.117 714.407C775.602 692.118 757.756 665.838 744.654 635.567C731.551 605.296 725 573.067 725 538.654C725 505.145 731.401 473.518 744.277 443.699C757.154 413.88 774.623 387.901 796.762 365.838C818.825 343.774 844.804 326.229 874.623 313.352C904.443 300.476 936.069 294 969.578 294C1020.18 294 1065.29 306.651 1104.74 331.952C1144.2 357.253 1174.25 392.871 1194.88 438.805H1096.39C1080.04 417.795 1062.12 402.509 1042.62 393.097C1023.12 383.684 999.397 378.94 971.461 378.94C949.172 378.94 928.313 383.006 909.036 391.139C889.759 399.271 872.967 410.566 858.81 424.949C844.653 439.331 833.584 456.274 825.678 475.777C817.696 495.28 813.78 516.44 813.78 539.181C813.78 561.47 817.921 582.554 826.355 602.283C834.714 622.012 846.235 639.181 860.768 653.789C875.376 668.398 892.319 679.994 911.596 688.579C930.873 697.163 951.506 701.455 973.419 701.455C996.16 701.455 1016.57 697.163 1034.56 688.579C1052.56 679.994 1071.46 665.612 1091.19 645.431H1195.03V645.581Z" fill="black"/>
<path fill-rule="evenodd" clip-rule="evenodd" d="M1920 1080H0V0H1920V1080ZM684.85 140C615.874 140 560 195.949 560 264.85V815.15C560 884.126 615.874 940 684.85 940H1235.15C1304.05 940 1360 884.051 1360 815.15V264.85C1360 195.874 1304.05 140 1235.15 140H684.85Z" fill="black"/>
</g>
</g>
<defs>
<clipPath id="clip0_157_386">
<rect width="1920" height="1080" fill="white"/>
</clipPath>
</defs>
</svg>
