<svg width="80" height="80" viewBox="0 0 80 80" fill="orange" xmlns="http://www.w3.org/2000/svg">
    <g clip-path="url(#clip0_151_106)">
        <path
            d="M78.3347 18.3337C77.4119 18.3337 76.6647 19.0795 76.6647 19.9999V33.3336H73.3347V29.9998C73.3347 26.3243 70.3415 23.3337 66.6646 23.3337C64.6774 23.3337 62.8904 24.2101 61.6648 25.5979C60.4441 24.2101 58.657 23.3337 56.6648 23.3337C54.6776 23.3337 52.8905 24.2101 51.6649 25.5979C50.4443 24.2101 48.6571 23.3337 46.6649 23.3337C44.6775 23.3337 42.8905 24.2101 41.6661 25.5979C40.4442 24.2101 38.657 23.3337 36.6661 23.3337C34.6776 23.3337 32.8893 24.2101 31.6661 25.5979C30.4442 24.2101 28.657 23.3337 26.666 23.3337C24.6776 23.3337 22.8893 24.2101 21.666 25.5979C20.4441 24.2101 18.6569 23.3337 16.666 23.3337C13.5668 23.3337 10.9519 25.4612 10.2097 28.3335H5.00002C4.07955 28.3335 3.33376 29.0793 3.33376 29.9998V33.3336H1.66626C0.745784 33.3336 0 34.0793 0 34.9998C0 35.9203 0.745784 36.6661 1.66626 36.6661H3.33376V39.9998C3.33376 40.9203 4.07955 41.6661 5.00002 41.6661H10V73.3347C10 77.009 12.9908 79.9997 16.6663 79.9997C18.6573 79.9997 20.4445 79.1208 21.6663 77.7341C22.8895 79.1208 24.6778 79.9997 26.6664 79.9997C28.6573 79.9997 30.4445 79.1208 31.6664 77.7341C32.8895 79.1208 34.6778 79.9997 36.6664 79.9997C38.6573 79.9997 40.4445 79.1208 41.6664 77.7341C42.8908 79.1208 44.6778 79.9997 46.6652 79.9997C48.6574 79.9997 50.4446 79.1208 51.6652 77.7341C52.8908 79.1208 54.6779 79.9997 56.6651 79.9997C58.6573 79.9997 60.4445 79.1208 61.6651 77.7341C62.8907 79.1208 64.6777 79.9997 66.6649 79.9997C70.3417 79.9997 73.335 77.0089 73.335 73.3347V36.6661H78.335C79.253 36.6661 80 35.9203 80 34.9998V19.9999C79.9997 19.0795 79.2527 18.3337 78.3347 18.3337ZM10 38.3336H6.66628V31.6661H10V38.3336ZM19.9999 73.3347C19.9999 75.1706 18.5057 76.6647 16.6662 76.6647C14.8291 76.6647 13.3336 75.1706 13.3336 73.3347V29.9998C13.3336 28.1626 14.829 26.666 16.6662 26.666C18.5057 26.666 19.9999 28.1626 19.9999 29.9998V73.3347ZM30 73.3347C29.9998 75.1706 28.5057 76.6647 26.6662 76.6647C24.8292 76.6647 23.3337 75.1706 23.3337 73.3347V29.9998C23.3337 28.1626 24.829 26.666 26.6662 26.666C28.5057 26.666 30 28.1626 30 29.9998V73.3347ZM39.9998 73.3347C39.9998 75.1706 38.5058 76.6647 36.6661 76.6647C34.829 76.6647 33.3336 75.1706 33.3336 73.3347V29.9998C33.3336 28.1626 34.8289 26.666 36.6661 26.666C38.5056 26.666 39.9998 28.1626 39.9998 29.9998V73.3347ZM49.9999 73.3347C49.9999 75.1706 48.5058 76.6647 46.6649 76.6647C44.8289 76.6647 43.3349 75.1706 43.3349 73.3347V29.9998C43.3349 28.1626 44.8289 26.666 46.6649 26.666C48.5057 26.666 49.9999 28.1626 49.9999 29.9998V73.3347ZM59.9998 73.3347C59.9998 75.1706 58.5057 76.6647 56.6648 76.6647C54.829 76.6647 53.3347 75.1706 53.3347 73.3347V29.9998C53.3347 28.1626 54.8288 26.666 56.6648 26.666C58.5055 26.666 59.9998 28.1626 59.9998 29.9998V73.3347ZM69.9996 73.3347C69.9996 75.1706 68.5056 76.6647 66.6646 76.6647C64.8288 76.6647 63.3346 75.1706 63.3346 73.3347V29.9998C63.3346 28.1626 64.8287 26.666 66.6646 26.666C68.5054 26.666 69.9996 28.1626 69.9996 29.9998V73.3347ZM55.7613 16.1987C55.5563 15.4894 55.6832 14.973 56.1813 14.4713C57.5338 13.1127 57.983 11.3488 57.441 9.50066C57.0798 8.26034 56.3766 7.38394 56.2887 7.27409C56.2838 7.27409 56.2838 7.27284 56.2838 7.27284V7.2705C55.9762 6.9019 55.5173 6.66628 54.9996 6.66628C54.0793 6.66628 53.3347 7.41331 53.3347 8.33378C53.3347 8.73785 53.4763 9.10894 53.7157 9.39707C53.7205 9.40066 54.0721 9.85613 54.243 10.4371C54.4408 11.1194 54.3163 11.6224 53.8182 12.1193C52.4705 13.4752 52.019 15.2513 52.556 17.119C52.9197 18.3849 53.6229 19.2809 53.701 19.3798V19.3785C54.0086 19.757 54.4749 19.9999 54.9997 19.9999C55.9202 19.9999 56.6648 19.2541 56.6648 18.3337C56.6648 17.9369 56.528 17.5732 56.2985 17.2876C56.2937 17.2827 55.9323 16.8054 55.7613 16.1987ZM41.9777 15.0952C41.5931 13.5583 41.9008 12.2522 42.9152 11.1035C44.6974 9.08926 45.2638 6.61987 44.5558 3.95877C44.0577 2.09345 43.1008 0.798284 42.9933 0.656721V0.659221C42.6856 0.260001 42.2084 0 41.6664 0C40.7456 0 39.9998 0.745784 39.9998 1.66626C39.9998 2.04345 40.1256 2.39017 40.3367 2.66845H40.3342C40.3416 2.67814 41.0361 3.62298 41.3572 4.90596C41.7405 6.44143 41.4328 7.74769 40.4172 8.89629C38.6375 10.9105 38.0711 13.3801 38.7792 16.0412C39.2748 17.9065 40.2331 19.2016 40.3392 19.3432L40.3417 19.3407C40.4963 19.5458 40.6964 19.7121 40.9263 19.8265C41.1561 19.9409 41.4095 20.0003 41.6663 19.9999C42.5878 19.9999 43.335 19.2541 43.335 18.3337C43.335 17.9565 43.2081 17.6098 42.9981 17.3315C42.9908 17.3218 42.2963 16.3769 41.9777 15.0952ZM29.6314 17.2876C29.6278 17.2827 29.2676 16.8054 29.0931 16.1987C28.8892 15.4894 29.015 14.973 29.5142 14.4713C30.8679 13.1127 31.3147 11.3488 30.7739 9.50066C30.4114 8.26034 29.7131 7.38644 29.619 7.27409C29.619 7.27409 29.619 7.27284 29.6178 7.27284L29.6165 7.26925V7.2705C29.3101 6.9019 28.85 6.66628 28.3335 6.66628C27.4131 6.66628 26.666 7.41331 26.666 8.33378C26.666 8.73785 26.8101 9.10894 27.0493 9.39707C27.0529 9.40066 27.4045 9.85613 27.5742 10.4371C27.7743 11.1194 27.6475 11.6224 27.1518 12.1193C25.8018 13.4752 25.3526 15.2513 25.8898 17.119C26.2535 18.3849 26.9567 19.2809 27.036 19.3798V19.3785C27.3425 19.757 27.8087 19.9999 28.3337 19.9999C29.2542 19.9999 30 19.2541 30 18.3337C30 17.9369 29.8607 17.5732 29.6301 17.2876H29.6314Z" />
    </g>
    <defs>
        <clipPath id="clip0_151_106">
            <rect width="80" height="80" fill="white" />
        </clipPath>
    </defs>
</svg>