<svg width="80" height="80" viewBox="0 0 80 80" fill="cyan" xmlns="http://www.w3.org/2000/svg">
    <g clip-path="url(#clip0_151_184)">
        <path
            d="M18.2296 33.8979H31.0357C32.4482 33.8979 33.5969 32.7492 33.5969 31.3366H40C40.7056 31.3366 41.2806 31.9104 41.2806 32.6173V33.8979C39.8681 33.8979 38.7194 35.0466 38.7194 36.4591V39.0203C38.7194 40.4328 39.8681 41.5816 41.2806 41.5816H54.0868C55.4993 41.5816 56.648 40.4328 56.648 39.0203V36.4591C56.648 35.0466 55.4993 33.8979 54.0868 33.8979V32.6173C54.0868 28.3349 52.1595 24.4982 49.1334 21.9126C52.8612 14.2878 59.3539 6.55291 61.7705 3.80215C65.2409 7.7554 77.1378 21.9894 77.1378 31.3366C77.1378 39.8105 70.2443 46.704 61.7705 46.704C60.1543 46.704 58.5638 46.4556 57.0424 45.9638L56.2549 48.3996C58.0311 48.9733 59.8867 49.2653 61.7705 49.2653C71.6568 49.2653 79.6991 41.223 79.6991 31.3366C79.6991 19.4449 63.402 1.75828 62.7092 1.0104L61.7705 0L60.8318 1.0104C60.4501 1.4202 51.8329 10.7674 47.0165 20.4194C44.885 19.1823 42.4645 18.5307 40 18.5305H33.5969C33.5969 17.118 32.4482 15.9693 31.0357 15.9693V13.408C31.0357 11.9955 29.887 10.8468 28.4745 10.8468V8.28558H33.5969C35.0095 8.28558 36.1582 7.13687 36.1582 5.72435V3.16312C36.1582 1.7506 35.0095 0.601889 33.5969 0.601889H15.6683C14.2558 0.601889 13.1071 1.7506 13.1071 3.16312V5.72435C13.1071 7.13687 14.2558 8.28558 15.6683 8.28558H20.7908V10.8468C19.3783 10.8468 18.2296 11.9955 18.2296 13.408V15.9693C16.8171 15.9693 15.6683 17.118 15.6683 18.5305H0.300964V31.3366H15.6683C15.6683 32.7479 16.8171 33.8979 18.2296 33.8979ZM54.0881 39.0203H41.2806V36.4591H54.0868L54.0881 39.0203ZM33.5969 21.0917H40C46.3544 21.0917 51.5255 26.2616 51.5255 32.6173V33.8979H43.8419V32.6173C43.8419 30.4991 42.1182 28.7754 40 28.7754H33.5969V21.0917ZM28.2389 3.16312H33.5969L33.5982 5.72435H28.2376C28.3823 5.32095 28.4745 4.89451 28.4745 4.44373C28.4745 3.99296 28.3823 3.56523 28.2389 3.16312ZM24.6326 3.16312C24.8863 3.16287 25.1343 3.23786 25.3453 3.37862C25.5563 3.51938 25.7208 3.71957 25.818 3.95386C25.9152 4.18815 25.9407 4.446 25.8912 4.69478C25.8418 4.94357 25.7197 5.1721 25.5404 5.35145C25.361 5.5308 25.1325 5.65292 24.8837 5.70234C24.6349 5.75176 24.3771 5.72627 24.1428 5.62909C23.9085 5.5319 23.7083 5.3674 23.5675 5.1564C23.4268 4.94539 23.3518 4.69738 23.352 4.44373C23.352 3.73683 23.927 3.16312 24.6326 3.16312ZM23.352 8.28558H25.9133V10.8468H23.352V8.28558ZM15.6683 5.72435V3.16312H21.0264C20.883 3.56523 20.7908 3.99168 20.7908 4.44373C20.7908 4.89579 20.883 5.32223 21.0264 5.72435H15.6683ZM20.7908 13.408H28.4745V15.9693H20.7908V13.408ZM18.2296 18.5305H31.0357L31.037 31.3366H18.2296V18.5305ZM2.86219 21.0917H15.6683V28.7754H2.86219V21.0917Z"
        />
        <path
            d="M5.42328 23.6528H13.107V26.2141H5.42328V23.6528ZM41.2805 44.1427H43.8417V49.2651H41.2805V44.1427ZM73.324 25.7505L70.9357 26.6764C71.2699 27.5369 71.5286 28.345 71.7079 29.0788L74.1961 28.4705C73.9912 27.6304 73.6967 26.7148 73.324 25.7505ZM61.7703 41.5814V44.1427C68.8316 44.1427 74.5765 38.3978 74.5765 31.3365H72.0152C72.0152 36.9853 67.4191 41.5814 61.7703 41.5814Z"
        />
        <path
            d="M68.3501 54.3877C65.0205 54.3877 63.3185 55.9232 61.8177 57.2794C60.4359 58.5267 59.3461 59.5102 57.0013 59.5102C55.7488 59.5102 54.8575 59.2233 54.0866 58.7713V44.1428H51.5254V56.6916C50.8018 56.0666 49.9899 55.4609 48.9641 55.0255V44.1428H46.4029V54.4313C46.1596 54.4134 45.924 54.3877 45.6601 54.3877C42.3318 54.3877 40.6299 55.9232 39.129 57.2794C37.7485 58.5267 36.6587 59.5102 34.3152 59.5102C31.9729 59.5102 30.8831 58.5254 29.5039 57.2794C28.0043 55.9232 26.3024 54.3877 22.9753 54.3877C19.6483 54.3877 17.9477 55.9232 16.4481 57.2794C15.0688 58.5267 13.979 59.5102 11.6381 59.5102C9.2971 59.5102 8.2073 58.5254 6.82807 57.2794C5.32847 55.9232 3.62782 54.3877 0.300781 54.3877V56.949C2.64303 56.949 3.73155 57.9338 5.11077 59.1798C6.61037 60.536 8.31103 62.0714 11.6381 62.0714C14.9651 62.0714 16.6658 60.536 18.1654 59.1798C19.5446 57.9325 20.6344 56.949 22.9753 56.949C25.3176 56.949 26.4074 57.9338 27.7866 59.1798C29.2107 60.4668 30.8332 61.8998 33.8401 62.0433C33.6915 62.4531 33.5968 62.8897 33.5968 63.352C33.5968 65.4702 35.3205 67.1939 37.4386 67.1939C39.5567 67.1939 41.2804 65.4702 41.2804 63.352C41.2795 62.7364 41.1304 62.1301 40.8457 61.5842C40.5611 61.0384 40.1493 60.569 39.6451 60.2158C40.0741 59.8777 40.4673 59.523 40.8476 59.1798C42.2281 57.9325 43.3179 56.949 45.6614 56.949C45.9252 56.949 46.1686 56.9656 46.4042 56.9887V62.0714H48.9654V57.9286C49.4815 58.2834 49.9579 58.7137 50.474 59.1798C50.8082 59.482 51.1565 59.7919 51.5266 60.0929V69.7551H54.0879V61.5848C54.9075 61.8806 55.8538 62.0714 57.0026 62.0714C57.0717 62.0714 57.1293 62.0612 57.1972 62.0599C56.8364 62.8697 56.6493 63.7461 56.6478 64.6327C56.6478 68.1633 59.5202 71.0357 63.0509 71.0357C66.5816 71.0357 69.454 68.1633 69.454 64.6327C69.454 61.5797 67.3025 59.0274 64.4378 58.3909C65.4674 57.5445 66.5316 56.949 68.3501 56.949C70.6949 56.949 71.7847 57.9338 73.1665 59.1798C74.6674 60.536 76.3693 62.0714 79.6989 62.0714V59.5102C77.3541 59.5102 76.263 58.5254 74.8825 57.2794C73.3816 55.9232 71.6797 54.3877 68.3501 54.3877ZM37.4386 64.6327C37.1089 64.6179 36.7975 64.4765 36.5694 64.238C36.3413 63.9995 36.214 63.6821 36.214 63.352C36.214 63.022 36.3413 62.7046 36.5694 62.4661C36.7975 62.2275 37.1089 62.0862 37.4386 62.0714C37.7683 62.0862 38.0797 62.2275 38.3078 62.4661C38.5359 62.7046 38.6632 63.022 38.6632 63.352C38.6632 63.6821 38.5359 63.9995 38.3078 64.238C38.0797 64.4765 37.7683 64.6179 37.4386 64.6327ZM66.8927 64.6327C66.8927 66.7508 65.169 68.4745 63.0509 68.4745C60.9328 68.4745 59.2091 66.7508 59.2091 64.6327C59.2091 62.5145 60.9328 60.7908 63.0509 60.7908C65.169 60.7908 66.8927 62.5132 66.8927 64.6327ZM47.6835 72.3163C45.5654 72.3163 43.8417 74.0401 43.8417 76.1582C43.8417 78.2763 45.5654 80 47.6835 80C49.8017 80 51.5254 78.2763 51.5254 76.1582C51.5254 74.0401 49.8017 72.3163 47.6835 72.3163ZM47.6835 77.4388C47.3538 77.4241 47.0425 77.2827 46.8143 77.0441C46.5862 76.8056 46.4589 76.4883 46.4589 76.1582C46.4589 75.8281 46.5862 75.5108 46.8143 75.2722C47.0425 75.0337 47.3538 74.8923 47.6835 74.8776C48.0133 74.8923 48.3246 75.0337 48.5527 75.2722C48.7808 75.5108 48.9081 75.8281 48.9081 76.1582C48.9081 76.4883 48.7808 76.8056 48.5527 77.0441C48.3246 77.2827 48.0133 77.4241 47.6835 77.4388Z" />
    </g>
    <defs>
        <clipPath id="clip0_151_184">
            <rect width="80" height="80" />
        </clipPath>
    </defs>
</svg>